<svg width="40" height="40" viewBox="0 0 40 40" fill="none" xmlns="http://www.w3.org/2000/svg">
<path fill-rule="evenodd" clip-rule="evenodd" d="M8.57213 0C6.29923 -1.67598e-07 4.11938 0.902681 2.51188 2.50956C0.904391 4.11643 0.00087285 6.29594 0 8.56884V31.4279C0 33.7013 0.903133 35.8817 2.51072 37.4893C4.11831 39.0969 6.29866 40 8.57213 40H31.4312C33.7041 39.9991 35.8836 39.0956 37.4904 37.4881C39.0973 35.8806 40 33.7008 40 31.4279V8.56884C39.9991 6.29651 39.0961 4.1175 37.4893 2.51072C35.8825 0.903939 33.7035 0.000872463 31.4312 0H8.57213ZM33.8968 8.58201C33.8968 9.23681 33.6367 9.86479 33.1737 10.3278C32.7106 10.7908 32.0827 11.0509 31.4279 11.0509C30.7731 11.0509 30.1451 10.7908 29.6821 10.3278C29.2191 9.86479 28.9589 9.23681 28.9589 8.58201C28.9589 7.92721 29.2191 7.29923 29.6821 6.83621C30.1451 6.3732 30.7731 6.11308 31.4279 6.11308C32.0827 6.11308 32.7106 6.3732 33.1737 6.83621C33.6367 7.29923 33.8968 7.92721 33.8968 8.58201ZM20.0049 13.1512C18.189 13.1512 16.4474 13.8726 15.1633 15.1567C13.8792 16.4408 13.1578 18.1824 13.1578 19.9984C13.1578 21.8143 13.8792 23.5559 15.1633 24.84C16.4474 26.1241 18.189 26.8455 20.0049 26.8455C21.8209 26.8455 23.5625 26.1241 24.8466 24.84C26.1307 23.5559 26.8521 21.8143 26.8521 19.9984C26.8521 18.1824 26.1307 16.4408 24.8466 15.1567C23.5625 13.8726 21.8209 13.1512 20.0049 13.1512ZM9.86256 19.9984C9.86256 17.3093 10.9308 14.7304 12.8322 12.8289C14.7337 10.9275 17.3126 9.85927 20.0016 9.85927C22.6907 9.85927 25.2696 10.9275 27.1711 12.8289C29.0725 14.7304 30.1407 17.3093 30.1407 19.9984C30.1407 22.6874 29.0725 25.2663 27.1711 27.1678C25.2696 29.0692 22.6907 30.1374 20.0016 30.1374C17.3126 30.1374 14.7337 29.0692 12.8322 27.1678C10.9308 25.2663 9.86256 22.6874 9.86256 19.9984Z" fill="black"/>
</svg>
